<svg width="48" height="46" viewBox="0 0 48 46" fill="none" xmlns="http://www.w3.org/2000/svg">
<path d="M24 0.368164C14.4694 0.368164 5.92659 3.86091 0 9.44023L24 45.7285L48 9.44023C42.1001 3.88359 33.5306 0.368164 24 0.368164ZM10.6518 11.7082C10.6518 9.21342 13.0545 7.17221 15.9911 7.17221C18.9277 7.17221 21.3304 9.21342 21.3304 11.7082C21.3304 14.2031 18.9277 16.2443 15.9911 16.2443C13.0545 16.2443 10.6518 14.2031 10.6518 11.7082ZM24 29.8524C21.0634 29.8524 18.6607 27.8111 18.6607 25.3163C18.6607 22.8215 21.0634 20.7803 24 20.7803C26.9366 20.7803 29.3393 22.8215 29.3393 25.3163C29.3393 27.8111 26.9366 29.8524 24 29.8524Z" fill="white"/>
</svg>
